<svg xmlns="http://www.w3.org/2000/svg" height="1014" width="500" viewBox="0 0 500 1014">
  <path id="path4" d="m73.011 0c-40.257 0-73.011 32.769-73.011 73.047v867.91c-5e-7 40.27 32.754 73.04 73.011 73.04h349.04c40.257 0 73.009-32.77 73.009-73.047v-428.16h1.5508c1.2185 0 2.2067-0.98983 2.2067-2.2089v-124.59c0-1.2203-0.98816-2.2089-2.2067-2.2089h-1.5508v-77.825h2.7373c1.2185 0 2.2066-0.98867 2.2066-2.2089v-59.197c0-1.2203-0.98815-2.2089-2.2066-2.2089h-2.7373v-169.3c0-40.271-32.76-73.04-73.01-73.04h-349.04zm0 3.5639h349.04c38.293 0 69.445 31.17 69.445 69.484v867.91c0 38.312-31.152 69.484-69.445 69.484h-349.04c-38.293 0-69.447-31.171-69.447-69.484v-867.91c-0.0091-38.276 31.145-69.446 69.438-69.446zm11.919 32.67c-5.5781 0-10.1 4.5232-10.1 10.104 0 5.5798 4.5215 10.106 10.1 10.106 5.5769 0 10.1-4.5267 10.1-10.106 0-5.581-4.5227-10.104-10.1-10.104zm114.63 6.1099c-1.3954 0-2.5255 1.1305-2.5255 2.5255 0 1.3949 1.13 2.5255 2.5255 2.5255h95.941c1.3942 0 2.5255-1.1305 2.5255-2.5255 0-1.3949-1.1312-2.5255-2.5255-2.5255h-95.941zm37.65 34.321c-4.4071 0-8.0136 3.6077-8.0136 8.0159v0.0091c0 4.4082 3.6065 8.0137 8.0136 8.0137h20.641c4.4072 0 8.0136-3.6054 8.0136-8.0137v-0.0091c0-4.4082-3.6065-8.0159-8.0136-8.0159h-20.641zm-206.96 39.295c-3.5862 0-6.5312 2.9476-6.5312 6.5357v778.27c0 3.5881 2.9449 6.5357 6.5312 6.5357h433.47c3.5862 0 6.5334-2.9476 6.5334-6.5357v-778.27c0-3.5881-2.9472-6.5357-6.5334-6.5357h-433.47zm0 3.5662h433.47c1.6605 0 2.9695 1.3082 2.9695 2.9695v778.27c0 1.6614-1.309 2.9718-2.9695 2.9718h-433.47c-1.6605 0-2.9695-1.3105-2.9695-2.9718v-778.27c0-1.6614 1.309-2.9695 2.9695-2.9695z"
    fill="#cbcbcb" />
</svg>